<?xml version="1.0" encoding="UTF-8" standalone="no"?>
<svg
   viewBox="0 0 234.64924 114.1679"
   fill="#2d8cff"
   class="header-logo"
   version="1.1"
   id="svg4"
   sodipodi:docname="image.svg"
   width="234.64925"
   height="114.16791"
   inkscape:version="1.1 (c68e22c387, 2021-05-23)"
   xmlns:inkscape="http://www.inkscape.org/namespaces/inkscape"
   xmlns:sodipodi="http://sodipodi.sourceforge.net/DTD/sodipodi-0.dtd"
   xmlns="http://www.w3.org/2000/svg"
   xmlns:svg="http://www.w3.org/2000/svg">
  <defs
     id="defs8" />
  <sodipodi:namedview
     id="namedview6"
     pagecolor="#505050"
     bordercolor="#ffffff"
     borderopacity="1"
     inkscape:pageshadow="0"
     inkscape:pageopacity="0"
     inkscape:pagecheckerboard="1"
     showgrid="false"
     inkscape:zoom="1.3440044"
     inkscape:cx="54.3153"
     inkscape:cy="51.711142"
     inkscape:window-width="1366"
     inkscape:window-height="715"
     inkscape:window-x="-8"
     inkscape:window-y="-8"
     inkscape:window-maximized="1"
     inkscape:current-layer="svg4" />
  <path
     fill-rule="evenodd"
     clip-rule="evenodd"
     d="m 101.07305,47.091157 c 7.10789,-6.824368 7.10789,-17.888642 0,-24.71289 -3.551089,-3.409335 -8.204363,-5.115411 -12.88174,-5.118231 -4.65419,0.0029 -9.307459,1.708896 -12.858371,5.118231 -7.108082,6.824248 -7.108082,17.888522 0,24.71289 7.107898,6.824194 18.632211,6.824194 25.740111,0 z m -5.148132,-4.942873 c 4.264772,-4.094658 4.264772,-10.733149 0,-14.827717 -4.264772,-4.094588 -11.179254,-4.094588 -15.44403,0 -4.264777,4.094568 -4.264777,10.733059 0,14.827717 4.264776,4.094477 11.179258,4.094477 15.44403,0 z M 140.20506,22.378267 c 7.10807,6.824248 7.10807,17.888522 0,24.71289 -7.10791,6.824194 -18.63204,6.824194 -25.74012,0 -7.1079,-6.824368 -7.1079,-17.888642 0,-24.71289 3.55109,-3.409335 8.20436,-5.115411 12.85855,-5.118231 4.67738,0.0029 9.33065,1.708896 12.88157,5.118231 z m -5.14796,4.9423 c 4.26477,4.094568 4.26477,10.733059 0,14.827717 -4.26478,4.094477 -11.17944,4.094477 -15.44403,0 -4.26496,-4.094658 -4.26496,-10.733149 0,-14.827717 4.26459,-4.094588 11.17925,-4.094588 15.44403,0 z m 35.86947,3.919175 c -0.0704,-1.312379 -0.26611,-2.475264 -0.88962,-3.505848 -1.26044,-2.083257 -3.6098,-3.484005 -6.29982,-3.484005 -2.68761,0 -5.03494,1.398058 -6.29631,3.477959 -0.62572,1.031946 -0.81637,2.197557 -0.8931,3.511894 l -0.0911,1.747464 v 12.232243 l -0.0909,1.748164 c -0.1189,2.900967 -2.3295,4.962272 -5.36935,5.154319 l -1.82007,0.08737 V 17.260036 c 1.82007,0 4.99004,0.883583 6.40617,2.396314 2.32654,-1.512731 5.13305,-2.396314 8.15467,-2.396314 4.34889,0 8.2526,1.830485 10.92052,4.732741 2.6681,-2.902256 6.5718,-4.732741 10.92069,-4.732741 8.04167,0 14.56085,6.258923 14.56085,13.979706 v 1.763243 19.206316 l -1.81843,-0.08737 c -3.00746,-0.167409 -5.18217,-2.282184 -5.37099,-5.156762 l -0.0911,-1.745721 V 32.985336 l -0.0909,-1.745594 c -0.0722,-1.280523 -0.26391,-2.467994 -0.8839,-3.496464 -1.25898,-2.08843 -3.61148,-3.493389 -6.30552,-3.493389 -2.68448,0 -5.02962,1.39493 -6.2919,3.471022 -0.62846,1.033501 -0.8265,2.222772 -0.89753,3.518831 l -0.0909,1.747464 v 19.222095 l -1.81843,-0.08737 c -3.00305,-0.182615 -5.19101,-2.298961 -5.371,-5.156762 l -0.0911,-1.745721 V 32.987206 Z M 43.610581,52.209301 41.790459,52.121932 C 38.767593,51.930757 36.600717,49.84603 36.421156,46.965343 l -0.091,-1.745894 21.841176,-20.96956 h -16.38087 l -1.822311,-0.08737 C 36.991089,23.997488 34.836879,21.84879 34.601055,19.005853 l -0.091,-1.745801 27.301633,0.0016 1.819901,0.08578 c 3.015192,0.152981 5.225243,2.257148 5.369524,5.157185 l 0.09091,1.745297 -21.841231,20.969562 h 16.380977 l 1.820086,0.08737 c 3.003598,0.180165 5.125682,2.279398 5.36934,5.156599 l 0.09091,1.745886 z"
     id="path2"
     style="stroke-width:0.633139" />
  <g
     id="g21"
     transform="matrix(1.2245434,0,0,1.2245434,93.938398,62.641699)">
    <path
       opacity="0.2"
       fill="#000000"
       d="m 20.200999,5.169 c -8.254,0 -14.9459995,6.692 -14.9459995,14.946 0,8.255 6.6919995,14.946 14.9459995,14.946 8.254,0 14.946,-6.691 14.946,-14.946 -10e-4,-8.254 -6.692,-14.946 -14.946,-14.946 z m 0,26.58 c -6.425,0 -11.6339995,-5.208 -11.6339995,-11.634 0,-6.425 5.2089995,-11.634 11.6339995,-11.634 6.425,0 11.633,5.209 11.633,11.634 0,6.426 -5.208,11.634 -11.633,11.634 z"
       id="path10"
       style="fill:#2d8cff;fill-opacity:1" />
    <path
       fill="#000000"
       d="m 26.012999,10.047 1.654,-2.866 c -2.198,-1.272 -4.743,-2.012 -7.466,-2.012 v 0 3.312 0 c 2.119,0 4.1,0.576 5.812,1.566 z"
       id="path12"
       style="fill:#2d8cff;fill-opacity:1">
      <animateTransform
         attributeType="xml"
         attributeName="transform"
         type="rotate"
         from="0 20 20"
         to="360 20 20"
         dur="0.5s"
         repeatCount="indefinite" />
    </path>
  </g>
</svg>
